<svg width="118" height="60" viewBox="0 0 118 60" fill="none" xmlns="http://www.w3.org/2000/svg">
<path d="M112.499 28.7506C113.725 30.1027 114.604 31.211 115.129 31.9945C114.752 32.226 114.338 32.5198 113.902 32.8491C113.013 33.5203 111.902 34.4382 110.616 35.4999C110.433 35.6508 110.247 35.8047 110.057 35.9611C106.981 38.4978 102.867 41.8467 97.8417 45.1918C87.7798 51.8898 74.1713 58.5 58.1808 58.5C42.1934 58.5 28.7714 51.8922 18.898 45.1989C13.9662 41.8555 9.94467 38.5082 6.93801 35.9718C6.7526 35.8154 6.57047 35.6615 6.39176 35.5106C5.1349 34.4491 4.04698 33.5302 3.17513 32.8582C2.73608 32.5198 2.31877 32.2179 1.93775 31.9822C2.44252 31.2012 3.29718 30.0922 4.4954 28.7368C7.15284 25.7306 11.3445 21.6865 16.656 17.6329C27.3115 9.50084 42.2491 1.5 58.1809 1.5C74.1163 1.5 89.2399 9.50375 100.083 17.6403C105.488 21.6957 109.772 25.7419 112.499 28.7506Z" stroke="white" stroke-width="3"/>
<circle cx="58.0021" cy="30.6526" r="21.4445" stroke="white" stroke-width="2"/>
<path d="M65.838 30.2804C65.838 34.6161 62.3232 38.1308 57.9876 38.1308C53.6519 38.1308 50.1371 34.6161 50.1371 30.2804C50.1371 25.9447 53.6519 22.4299 57.9876 22.4299C62.3232 22.4299 65.838 25.9447 65.838 30.2804Z" fill="white"/>
<path d="M58 26C58 28.2091 56.2091 30 54 30C51.7909 30 50 28.2091 50 26C50 23.7909 51.7909 22 54 22C56.2091 22 58 23.7909 58 26Z" fill="#3E3F58"/>
</svg>
